# xmcd
#
# Track frame offsets:
#	150
#	12572
#	23507
#	35886
#	44380
#	55707
#	65850
#	79743
#	90829
#	101662
#	112831
#	125462
#	137786
#	151430
#	163080
#	175341
#	188700
#	199359
#	211001
#
# Disc length: 2953 seconds
#
# Revision: 1
# Processed by: cddbd v1.5.2PL0 Copyright (c) Steve Scherf et al.
# Submitted via: audiograbber 1.83.01
#
DISCID=020b8713
DTITLE=Country Greats -  Country Greats CD 2
DYEAR=2008
DGENRE=Country
TTITLE0=01 - Hank Williams - I Saw The Light
TTITLE1=02 - Johnny Cash - Cry! Cry! Cry!
TTITLE2=03 - Lynn Anderson - Stand By Your Man
TTITLE3=04 - Willie Nelson - Slow Down Old World
TTITLE4=05 - Kitty Wells - It Wasn't God Who Made Honky Tonk Angels
TTITLE5=06 - Patsy Cline - Three Cigarettes In An Ashtray
TTITLE6=07 - Bill Monroe and His Blue Brass Boys - Blue Moon Of Kentucky
TTITLE7=08 - Boxcar Willie - Wreck Of The Old '97
TTITLE8=09 - Jerry Lee Lewis - Will The Circle Be Unbroken
TTITLE9=10 - Dave Dudley - Cowboy Boots
TTITLE10=11 - Lynn Anderson - Rose Garden
TTITLE11=12 - Billie Jo Spears - The Cheatin' Kind
TTITLE12=13 - Freddy Fender - Wasted Days And Wasted Nights
TTITLE13=14 - Charlie Walker - Pick Me Up On Your Way Down
TTITLE14=15 - Frankie Laine - High Noon
TTITLE15=16 - Patti Page - The Tennesse Waltz
TTITLE16=17 - Charlie Rich - Who Will The Next Fool Be
TTITLE17=18 - Barbara Fairchild - Cheating Is
TTITLE18=19 - Hank Locklin - Please Help Me I'm Falling
EXTD=CD REPRIS CAR INSCRIPTIONS ERROONE
EXTT0=
EXTT1=
EXTT2=
EXTT3=
EXTT4=
EXTT5=
EXTT6=
EXTT7=
EXTT8=
EXTT9=
EXTT10=
EXTT11=
EXTT12=
EXTT13=
EXTT14=
EXTT15=
EXTT16=
EXTT17=
EXTT18=
PLAYORDER=
